<?xml version="1.0" encoding="utf-8"?>
<!-- Generator: Adobe Illustrator 26.4.1, SVG Export Plug-In . SVG Version: 6.00 Build 0)  -->
<svg version="1.1" id="Layer_1" xmlns="http://www.w3.org/2000/svg" xmlns:xlink="http://www.w3.org/1999/xlink" x="0px" y="0px"
	 viewBox="0 0 256 256" style="enable-background:new 0 0 256 256;" xml:space="preserve">
<style type="text/css">
	.st0{fill:#D083EA;}
	.st1{display:none;}
	.st2{display:inline;fill:#FFFFFF;stroke:#000000;}
	.st3{font-family:'Arial-BoldMT';}
	.st4{font-size:57.7366px;}
	.st5{display:inline;}
	.st6{font-size:107.0533px;}
	.st7{font-size:92.6191px;}
	.st8{fill:#FFFFFF;stroke:#000000;}
</style>
<rect class="st0" width="256" height="256"/>
<text transform="matrix(1 0 0 1 20 69.5322)" class="st1"><tspan x="0" y="0" class="st2 st3 st4">SIMPLE</tspan><tspan x="0" y="86.6" class="st5 st3 st6">PHP</tspan><tspan x="0" y="163.6" class="st2 st3 st7">INFO</tspan></text>
<g>
	<path class="st8" d="M22.1,56.1l8.1-0.8c0.5,2.7,1.5,4.7,3,6c1.5,1.3,3.5,1.9,6,1.9c2.7,0,4.7-0.6,6.1-1.7c1.4-1.1,2-2.5,2-4
		c0-1-0.3-1.8-0.9-2.5c-0.6-0.7-1.6-1.3-3-1.8c-1-0.3-3.2-0.9-6.7-1.8c-4.5-1.1-7.6-2.5-9.4-4.1c-2.5-2.3-3.8-5-3.8-8.3
		c0-2.1,0.6-4.1,1.8-5.9c1.2-1.8,2.9-3.2,5.2-4.2c2.2-1,5-1.4,8.1-1.4c5.2,0,9.1,1.1,11.7,3.4c2.6,2.3,4,5.3,4.1,9.1l-8.3,0.4
		c-0.4-2.1-1.1-3.7-2.3-4.6c-1.2-0.9-2.9-1.4-5.3-1.4c-2.4,0-4.3,0.5-5.7,1.5c-0.9,0.6-1.3,1.5-1.3,2.6c0,1,0.4,1.8,1.2,2.5
		c1.1,0.9,3.6,1.8,7.7,2.8s7.1,2,9,3c1.9,1,3.5,2.4,4.6,4.2s1.6,4,1.6,6.6c0,2.4-0.7,4.6-2,6.7c-1.3,2.1-3.2,3.6-5.6,4.6
		c-2.4,1-5.4,1.5-9,1.5c-5.2,0-9.2-1.2-12-3.6C24.3,64.2,22.6,60.7,22.1,56.1z"/>
	<path class="st8" d="M62.5,69.5V28.2h8.3v41.3H62.5z"/>
	<path class="st8" d="M78.6,69.5V28.2h12.5l7.5,28.2l7.4-28.2h12.5v41.3h-7.8V37l-8.2,32.5h-8L86.4,37v32.5H78.6z"/>
	<path class="st8" d="M126.8,69.5V28.2h13.4c5.1,0,8.4,0.2,9.9,0.6c2.4,0.6,4.4,2,5.9,4s2.4,4.8,2.4,8c0,2.5-0.5,4.7-1.4,6.4
		c-0.9,1.7-2.1,3.1-3.5,4.1c-1.4,1-2.9,1.6-4.3,2c-2,0.4-4.9,0.6-8.7,0.6h-5.4v15.6H126.8z M135.2,35.2v11.7h4.6
		c3.3,0,5.5-0.2,6.6-0.6c1.1-0.4,2-1.1,2.6-2c0.6-0.9,0.9-2,0.9-3.2c0-1.5-0.4-2.7-1.3-3.7c-0.9-1-2-1.6-3.4-1.8c-1-0.2-3-0.3-6-0.3
		H135.2z"/>
	<path class="st8" d="M165.6,69.5v-41h8.3v34h20.7v7H165.6z"/>
	<path class="st8" d="M200.6,69.5V28.2h30.6v7H209v9.2h20.7v7H209v11.2h23.1v7H200.6z"/>
	<path d="M27.8,156.1V79.5h24.8c9.4,0,15.5,0.4,18.4,1.1c4.4,1.1,8.1,3.7,11,7.5c3,3.9,4.4,8.8,4.4,14.9c0,4.7-0.9,8.7-2.6,11.9
		c-1.7,3.2-3.9,5.7-6.5,7.6c-2.6,1.8-5.3,3-8,3.6c-3.7,0.7-9,1.1-16,1.1H43.3v28.9H27.8z M43.3,92.5v21.7h8.5
		c6.1,0,10.2-0.4,12.2-1.2c2.1-0.8,3.7-2.1,4.8-3.8c1.2-1.7,1.8-3.7,1.8-6c0-2.8-0.8-5.1-2.5-6.9c-1.6-1.8-3.7-2.9-6.2-3.4
		c-1.8-0.3-5.6-0.5-11.1-0.5H43.3z"/>
	<path d="M99.2,156.1V79.5h15.5v30.2H145V79.5h15.5v76.6H145v-33.5h-30.3v33.5H99.2z"/>
	<path d="M176.5,156.1V79.5h24.8c9.4,0,15.5,0.4,18.4,1.1c4.4,1.1,8.1,3.7,11,7.5c3,3.9,4.4,8.8,4.4,14.9c0,4.7-0.9,8.7-2.6,11.9
		c-1.7,3.2-3.9,5.7-6.5,7.6c-2.6,1.8-5.3,3-8,3.6c-3.7,0.7-9,1.1-16,1.1H192v28.9H176.5z M192,92.5v21.7h8.5
		c6.1,0,10.2-0.4,12.2-1.2c2.1-0.8,3.7-2.1,4.8-3.8c1.2-1.7,1.8-3.7,1.8-6c0-2.8-0.8-5.1-2.5-6.9c-1.6-1.8-3.7-2.9-6.2-3.4
		c-1.8-0.3-5.6-0.5-11.1-0.5H192z"/>
	<path class="st8" d="M26.3,233.1v-66.3h13.4v66.3H26.3z"/>
	<path class="st8" d="M52.6,233.1v-66.3h13l27.1,44.3v-44.3h12.4v66.3H91.8L65,189.9v43.2H52.6z"/>
	<path class="st8" d="M119.4,233.1v-66.3h45.5V178h-32.1v15.7h27.7v11.2h-27.7v28.2H119.4z"/>
	<path class="st8" d="M173.2,200.4c0-6.8,1-12.4,3-17c1.5-3.4,3.6-6.4,6.2-9.1c2.6-2.7,5.5-4.7,8.6-6c4.1-1.7,8.9-2.6,14.3-2.6
		c9.8,0,17.6,3,23.4,9.1c5.9,6.1,8.8,14.5,8.8,25.3c0,10.7-2.9,19.1-8.7,25.1c-5.8,6-13.6,9.1-23.3,9.1c-9.9,0-17.7-3-23.5-9
		S173.2,210.9,173.2,200.4z M187,199.9c0,7.5,1.7,13.2,5.2,17.1c3.5,3.9,7.9,5.8,13.2,5.8c5.3,0,9.7-1.9,13.1-5.8
		c3.4-3.8,5.1-9.6,5.1-17.3c0-7.6-1.7-13.3-5-17c-3.3-3.7-7.8-5.6-13.3-5.6s-10,1.9-13.3,5.7C188.7,186.6,187,192.3,187,199.9z"/>
</g>
</svg>
